<svg width="286" height="89" viewBox="0 0 286 89" fill="none" xmlns="http://www.w3.org/2000/svg">
<g clip-path="url(#clip0_156_141)">
<path fill-rule="evenodd" clip-rule="evenodd" d="M280.34 20.28C279.03 19.58 277.19 19.11 275.73 19.11C274.74 19.11 273.04 19.53 273.04 20.76C273.04 22.4 275.73 22.64 276.89 22.87C280.9 23.67 283.91 25.55 283.91 30.02C283.91 36.37 278.12 39.01 272.52 39.01C269.08 39.01 265.69 38.02 262.77 36.23L265.88 30.25C267.62 31.48 270.54 32.7 272.66 32.7C273.74 32.7 275.34 32.18 275.34 30.86C275.34 28.98 272.66 28.89 269.97 28.18C267.29 27.47 264.6 26.16 264.6 21.83C264.6 15.9 269.97 13.27 275.24 13.27C277.97 13.27 280.7 13.69 283.19 14.82L280.32 20.28H280.34ZM260.58 38.22H252.01V35.53H251.92C250.42 37.93 247.45 39.01 244.63 39.01C237.47 39.01 232.44 33.03 232.44 26.11C232.44 19.19 237.39 13.26 244.54 13.26C247.32 13.26 250.24 14.3 252.02 16.41V14.05H260.59V38.2L260.58 38.22ZM241.28 26.17C241.28 29.23 243.31 31.58 246.79 31.58C250.27 31.58 252.29 29.23 252.29 26.17C252.29 23.11 250.27 20.71 246.79 20.71C243.31 20.71 241.28 23.21 241.28 26.17ZM229.99 4.8C229.99 7.44 227.83 9.6 225.19 9.6C222.55 9.6 220.39 7.43 220.39 4.8C220.39 2.17 222.55 0 225.19 0C227.83 0 229.99 2.16 229.99 4.8ZM229.47 38.22H220.9V14.07H229.47V38.22ZM208.16 18.02H208.25C209.9 15.06 212.72 13.73 216.06 13.73H217.71V21.97C216.54 21.31 215.41 21.17 214.09 21.17C209.34 21.17 208.16 24.32 208.16 28.47V38.21H199.59V14.07H208.16V18.02ZM196.63 27.58H178.6C178.6 31.06 180.43 32.95 183.96 32.95C185.8 32.95 187.12 32.34 188.06 30.74H196.3C195.64 33.56 193.94 35.63 191.73 37C189.52 38.37 186.79 39.03 184.01 39.03C176.01 39.03 170.04 34.51 170.04 26.18C170.04 17.85 175.54 13.28 183.4 13.28C191.78 13.28 196.63 18.45 196.63 26.7V27.59V27.58ZM188.67 22.63C188.25 20.33 186.14 18.82 183.83 18.82C181.33 18.82 179.26 20.14 178.74 22.63H188.67ZM164.25 38.22H155.68V20.43H152.9V13.37H155.68V6.12H164.25V13.37H169.1V20.43H164.25V38.22ZM151.03 26.17C151.03 34.36 144.24 39.02 136.48 39.02C128.72 39.02 121.94 34.41 121.94 26.17C121.94 17.93 128.71 13.27 136.48 13.27C144.25 13.27 151.03 17.93 151.03 26.17ZM130.98 26.17C130.98 29.23 133.01 31.58 136.49 31.58C139.97 31.58 142 29.23 142 26.17C142 23.11 139.98 20.71 136.49 20.71C133 20.71 130.98 23.21 130.98 26.17ZM118.09 38.22H109.52V1.61H118.09V38.22Z" fill="white"/>
<path d="M236.05 49.93L228.8 57.18L234.45 68.24L252.75 49.93H236.05Z" fill="#F29100"/>
<path fill-rule="evenodd" clip-rule="evenodd" d="M208.41 49.92H225.11L234.44 68.24H217.74L208.41 49.92Z" fill="white"/>
<path fill-rule="evenodd" clip-rule="evenodd" d="M132.85 49.2695C136.01 49.2695 139.2 49.8597 141.99 50.8496L140.071 65.5C138.182 63.4342 135.644 61.6396 132.49 61.6396C128.3 61.6398 124.37 64.9499 123.69 69.1396C123.04 73.3896 126.14 76.6395 130.32 76.6396C133.54 76.6396 136.3 75.28 138.9 73.0801L136.2 87.4805C133.779 88.5303 128.52 88.9999 126 89C115.04 89 107.81 80.4798 109.54 69.5098C111.31 58.2599 121.57 49.2695 132.85 49.2695ZM180.5 88.4102H165.69L165.159 83.6104H154.59L152.7 88.4102H137.93L157.39 49.9297H172.85L180.5 88.4102ZM197.02 88.4102H183.04L189.14 49.9297H203.119L197.02 88.4102ZM285.01 88.4102H270.2L269.68 83.6104H259.11L257.22 88.4102H242.44L261.9 49.9297H277.36L285.01 88.4102ZM158.17 74.5098H164.27L164.28 74.5L163.59 67.4502C163.43 65.7802 163.5 63.29 163.53 61.5H162.96L158.17 74.5098ZM262.68 74.5098H268.79V74.5L268.1 67.4502C267.94 65.7802 268.01 63.29 268.04 61.5H267.47L262.68 74.5098ZM140.079 65.5098H140.07L140.071 65.5C140.074 65.5032 140.076 65.5065 140.079 65.5098Z" fill="white"/>
<path d="M232.59 70.1H215.88L197.57 88.41H214.27L232.59 70.1Z" fill="#F29100"/>
<path fill-rule="evenodd" clip-rule="evenodd" d="M221.52 81.17L232.59 70.1L241.92 88.41H225.21L221.52 81.17Z" fill="white"/>
<path d="M72.9998 47.0404C80.1796 47.0404 86.2095 53.0598 86.2097 60.2396C86.2097 67.4196 80.1798 73.4496 72.9998 73.4496H71.5701V74.89C71.57 82.07 65.5401 88.1097 58.3601 88.1097C51.1801 88.1097 45.1502 82.07 45.1501 74.89V47.0404H72.9998ZM27.8503 1.89001C35.0301 1.89021 41.0602 7.92998 41.0603 15.1097V42.9603H13.2097C6.01988 42.9602 -0.00994462 36.94 -0.0100098 29.7601C-0.0100098 22.5802 6.02984 16.5503 13.2097 16.5502H14.6404V15.1097C14.6405 7.92986 20.6704 1.89001 27.8503 1.89001Z" fill="white"/>
<path d="M41.0701 47.0404V74.9701C41.02 82.11 35.04 88.1097 27.8601 88.1097C20.6801 88.1097 14.6502 82.07 14.6501 74.89V73.4496H13.2205C6.03046 73.4496 -0.000244141 67.4096 -0.000244141 60.2396C-4.52373e-05 53.0698 6.03058 47.0404 13.2205 47.0404H41.0701ZM58.3601 1.90955C65.5401 1.90959 71.5701 7.95028 71.5701 15.1302V16.5599H72.9998C80.1897 16.5599 86.2204 22.6099 86.2205 29.7699C86.2205 36.9299 80.1798 42.9603 72.9998 42.9603H45.1501V15.0297C45.1996 8.00124 51.024 2.0771 58.0261 1.89392L58.3601 1.90955Z" fill="#F29100"/>
</g>
<defs>
<clipPath id="clip0_156_141">
<rect width="285.02" height="89" fill="white"/>
</clipPath>
</defs>
</svg>
