<svg width="87" height="87" viewBox="0 0 87 87" fill="none" xmlns="http://www.w3.org/2000/svg">
<path d="M41.4368 45.5531H13.3482C6.09395 45.5531 0.0100992 51.637 0.0100992 58.871C0.0100992 66.105 6.09395 72.199 13.3482 72.199H14.7909V73.6518C14.7909 80.896 20.8748 86.9899 28.1189 86.9899C35.363 86.9899 41.3964 80.9363 41.4468 73.7326V45.5531H41.4368Z" fill="#F39200"/>
<path fill-rule="evenodd" clip-rule="evenodd" d="M41.4367 13.3381C41.4367 6.09394 35.3529 0 28.1088 0C20.8647 0 14.7808 6.09394 14.7808 13.3381V14.7909H13.3381C6.09394 14.7909 0 20.8748 0 28.1189C0 35.363 6.08385 41.4367 13.3381 41.4367H41.4367V13.3381Z" fill="white"/>
<path fill-rule="evenodd" clip-rule="evenodd" d="M45.5633 73.6518C45.5633 80.896 51.6472 86.9899 58.8913 86.9899C66.1354 86.9899 72.2192 80.896 72.2192 73.6518V72.199H73.662C80.9061 72.199 86.99 66.1151 86.99 58.871C86.99 51.6269 80.9061 45.5531 73.662 45.5531H45.5633V73.6417V73.6518Z" fill="white"/>
<path d="M58.8913 0C51.6774 0 45.6138 6.05358 45.5633 13.2573V41.4367H73.662C80.9061 41.4367 87.0001 35.3529 87.0001 28.129C87.0001 20.905 80.9162 14.801 73.662 14.801H72.2192V13.3582C72.2192 6.11411 66.1354 0.0201786 58.8913 0.0201786" fill="#F39200"/>
</svg>
