<svg width="237" height="55" viewBox="0 0 237 55" fill="none" xmlns="http://www.w3.org/2000/svg">
<g clip-path="url(#clip0_154_140)">
<path fill-rule="evenodd" clip-rule="evenodd" d="M28.0793 0.00597137C30.2266 -0.0401025 32.3336 0.179847 34.3782 0.686635C36.4337 1.18989 38.4614 1.97638 40.4817 3.01476L38.8625 18.6349C32.6562 9.86294 18.2724 15.9168 17.1428 26.8439C15.7077 40.7123 29.5509 43.9443 37.0842 35.7784L35.4621 51.4337C33.2137 52.5643 31.0142 53.4434 28.844 54.0353C26.6856 54.6306 24.5224 54.9462 22.3762 54.9923C19.6778 55.0525 17.2332 54.7614 15.0305 54.1271C12.8279 53.5033 10.8341 52.5115 9.07054 51.172C5.66907 48.6237 3.20954 45.3837 1.69456 41.4425C0.17962 37.4872 -0.319603 33.0249 0.196513 28.0382C0.6127 24.0297 1.59889 20.3755 3.16917 17.0616C4.72598 13.7513 6.88195 10.738 9.62815 8.0089C12.2243 5.40739 15.0522 3.4441 18.1116 2.11144C21.159 0.789507 24.4846 0.083963 28.0793 0.00597137ZM94.8088 54.2198H78.0989L76.8674 47.1417H60.6555L56.926 54.2198H39.9836L65.1594 1.11535H84.1946L94.8088 54.2198ZM119.563 54.2198H102.721L110.014 1.11535H126.852L119.563 54.2198ZM237 54.2198H220.286L219.058 47.1417H202.843L199.114 54.2198H182.171L207.351 1.11535H226.382L237 54.2198ZM72.4973 18.2482L66.3606 33.9181H74.8537L72.5256 18.1847L72.4973 18.2482ZM208.551 33.9181H217.041L214.713 18.1847L208.551 33.9181Z" fill="white"/>
<path fill-rule="evenodd" clip-rule="evenodd" d="M144.946 29.3881H166.046L180.504 53.9182H159.4L144.946 29.3881Z" fill="white"/>
<path fill-rule="evenodd" clip-rule="evenodd" d="M125.333 54.0671H147.139L166.081 29.3421H144.271L125.333 54.0671Z" fill="#F39200"/>
<path fill-rule="evenodd" clip-rule="evenodd" d="M147.139 25.6208H168.949L187.891 1.19353H166.081L147.139 25.6208Z" fill="#F39200"/>
<path fill-rule="evenodd" clip-rule="evenodd" d="M133.197 0.895817H153.55L167.496 25.6208H147.139L133.197 0.895817Z" fill="white"/>
</g>
<defs>
<clipPath id="clip0_154_140">
<rect width="237" height="55" fill="white"/>
</clipPath>
</defs>
</svg>
